PathFileType	4	(X/Y/Z)	C:\Users\WrightLab\Desktop\Jo\P1_boxCal7.trc
DataRate	CameraRate	NumFrames	NumMarkers	Units	OrigDataRate	OrigDataStartFrame	OrigNumFrames
100.00	100.00	       11	19	mm	100.00	305	       609
Frame#	Time	Headset_Front			Headset_Back			Headset_Left			Headset_Right			Left_Shoulder			Right_Shoulder			Sternum			C7			Left Elbow			Right Elbow			Left Wrist			Right Wrist			Left ASIS			Right ASIS			S2			Left Knee			Right Knee			Left Ankle			Right Ankle			
		X1	Y1	Z1	X2	Y2	Z2	X3	Y3	Z3	X4	Y4	Z4	X5	Y5	Z5	X6	Y6	Z6	X7	Y7	Z7	X8	Y8	Z8	X9	Y9	Z9	X10	Y10	Z10	X11	Y11	Z11	X12	Y12	Z12	X13	Y13	Z13	X14	Y14	Z14	X15	Y15	Z15	X16	Y16	Z16	X17	Y17	Z17	X18	Y18	Z18	X19	Y19	Z19	

305	3.040	-209.87984	1394.18457	945.99298	-292.94992	1547.49609	692.83350	-152.56841	1476.65857	767.22949	-341.62601	1433.11682	883.75519	-124.98442	1306.12500	603.76959	-429.85846	1293.57947	819.93726	-211.85091	1198.31189	836.08667	-329.27295	1300.43555	617.26910	-72.21863	994.19000	513.60345	-533.76245	1026.52539	824.80884	49.66790	830.35046	503.37335	-544.60632	809.28571	957.00067	-110.41962	920.87976	791.90454	-282.76837	916.12128	892.48230	-358.80609	911.09381	571.39301	2.19107	523.15137	727.68018	-371.46091	463.89700	810.37164	-61.72005	173.51942	625.23578	-337.65582	98.62902	731.77972	
306	3.050	-206.63991	1394.28906	954.82465	-287.93729	1547.40637	700.70172	-148.42253	1476.52930	775.98779	-338.42065	1434.29626	892.04840	-119.29418	1306.32458	612.85492	-426.54169	1293.46008	827.27307	-208.11981	1198.39954	843.86060	-324.99292	1300.66772	625.62238	-67.27142	995.23688	521.78412	-530.04572	1026.32764	833.36859	54.40695	831.02008	511.04764	-538.47717	810.63397	967.93042	-107.00558	920.82050	801.41260	-280.36914	915.76501	900.02838	-351.66724	911.36694	577.22504	4.95880	523.87860	742.09454	-369.60425	462.31967	813.40454	-43.59162	167.62906	649.74707	-337.31171	98.75239	731.65851	
307	3.060	-203.39563	1394.30713	963.65491	-283.74387	1547.78516	707.98651	-144.26537	1476.33472	784.54260	-334.93802	1434.27026	899.66187	-114.14730	1305.83630	623.13885	-422.06311	1292.68591	834.02521	-204.76369	1197.84229	852.94025	-319.26929	1300.98730	633.29700	-61.65850	995.28564	530.31854	-525.71539	1025.89099	841.35431	59.30858	830.94635	519.31140	-532.91968	811.75610	978.67719	-104.06183	920.55469	811.87280	-278.68533	915.33600	907.78149	-343.36130	911.32477	583.42224	7.78625	523.66071	755.42700	-368.14432	461.26715	816.44244	-25.45928	162.05730	674.79395	-337.03253	98.85707	731.57831	
308	3.070	-200.40382	1394.34619	972.26520	-278.09271	1546.74097	716.60809	-139.92096	1476.12085	794.10980	-331.45407	1434.23718	907.30194	-108.51878	1305.59583	632.81213	-418.83185	1292.68958	841.33582	-200.54926	1196.81628	861.50763	-313.77505	1300.52039	641.48077	-56.63601	995.84930	539.28619	-521.85553	1025.36316	849.73535	63.89861	831.05615	527.50079	-527.56696	812.61444	989.34052	-101.25617	919.67731	821.27911	-277.31497	914.33093	915.42334	-336.13074	911.96350	590.18085	10.01765	523.16681	769.50879	-366.26364	460.01752	818.63232	-8.60370	155.79514	701.14838	-336.01837	98.52526	730.89313	
309	3.080	-197.84015	1394.44543	981.25598	-273.02155	1546.18445	724.38354	-135.71097	1475.48535	803.05713	-327.98236	1433.94897	914.90094	-103.65189	1305.32910	642.74249	-415.14651	1292.15149	848.54382	-196.77628	1195.27625	870.19476	-308.50546	1299.87354	649.69269	-51.37847	995.36768	548.69562	-517.66870	1024.58960	857.60547	69.11040	830.98126	536.16290	-522.44568	812.75134	999.29431	-98.35198	918.45782	832.19629	-275.28699	913.17670	923.07117	-328.57071	911.95148	595.88684	11.26859	521.24176	782.10754	-363.43512	458.28635	821.41980	7.87554	151.17606	727.64532	-334.80670	99.05161	730.83960	
310	3.090	-195.68321	1394.03491	990.45642	-268.35120	1545.15308	732.58716	-131.23070	1474.50391	812.59436	-324.48981	1433.42188	922.65540	-97.54655	1304.27393	653.17230	-411.34756	1291.10059	855.75763	-194.65564	1195.25415	880.48633	-302.92200	1299.50293	657.66583	-46.38433	995.24500	557.26074	-513.64294	1023.67242	865.55237	74.46362	830.94958	543.80139	-517.87897	812.95703	1009.05609	-93.60353	918.00513	842.25073	-272.83728	911.36456	930.36554	-320.32205	911.31677	602.66779	12.43771	519.37146	794.96606	-361.84418	458.00388	824.08093	24.87322	148.12959	753.64539	-334.02524	99.52036	731.29211	
311	3.100	-192.60352	1393.73535	998.75079	-263.34973	1544.12830	740.45905	-127.29622	1474.08643	820.22418	-321.29248	1432.52356	930.38757	-91.51911	1303.90515	663.46893	-407.31412	1290.07800	862.59058	-190.47495	1193.44250	888.86566	-297.23706	1298.88574	665.33807	-40.51100	995.10785	566.84113	-509.77570	1023.08179	873.49908	79.19013	829.87256	551.87158	-513.22937	812.30798	1018.34052	-90.83719	915.43884	852.55652	-270.83679	909.50476	938.21472	-312.63150	910.73840	609.53418	13.14962	517.04407	806.53326	-357.87711	456.68686	826.55890	39.84127	145.09926	782.04285	-333.77750	99.80743	731.35315	
312	3.110	-190.29419	1393.09814	1008.28033	-258.51657	1543.11804	748.73138	-122.88173	1472.79211	832.27045	-318.16779	1431.86292	938.21875	-85.88935	1302.20142	673.00006	-403.42993	1289.03833	869.85388	-186.84967	1191.59851	897.67145	-290.88437	1297.21179	674.04187	-35.00594	994.23242	575.39447	-505.24606	1021.55591	881.10248	84.30001	829.09680	561.19086	-509.01450	811.78510	1027.16882	-86.15624	914.31317	863.72345	-268.18143	907.40570	945.24969	-304.46860	910.39398	616.23077	13.22764	514.18188	817.53406	-355.65543	456.18170	830.61237	54.52880	143.58742	810.46094	-333.32751	99.76832	731.48853	
313	3.120	-187.66638	1392.15625	1017.15289	-254.26038	1542.86377	756.28284	-118.61642	1472.12170	841.15863	-314.92963	1431.10046	946.17596	-80.14672	1301.90808	684.21063	-399.42688	1287.79761	877.11548	-183.63786	1190.43591	907.54681	-285.77350	1297.01086	681.58942	-29.52560	992.99329	587.03503	-501.12161	1020.56293	888.27991	89.42937	828.12128	570.18469	-504.76428	811.32184	1035.69226	-81.93601	912.40649	874.33728	-266.20224	905.66461	952.75494	-296.84021	909.57806	623.47559	14.77400	511.48093	827.75378	-352.13913	454.80490	833.69812	67.70016	142.92218	838.63910	-333.00290	99.89986	731.71179	
314	3.130	-185.06363	1391.17505	1026.36975	-248.74500	1540.80933	765.43585	-114.44692	1471.34497	849.93823	-311.69559	1430.02966	953.86279	-73.90446	1300.63379	694.59802	-395.34296	1286.63098	883.72882	-180.11784	1188.73413	916.69958	-279.56808	1295.87415	690.08276	-23.85943	992.26733	595.09259	-496.87137	1019.10474	895.74481	95.11816	826.80896	578.82013	-501.03641	810.47986	1043.44482	-78.54485	910.11835	884.86420	-263.50449	903.67926	960.93298	-288.95728	908.03827	631.92096	16.76005	509.23724	838.54620	-347.26498	453.60034	837.56769	79.74699	144.01515	866.19537	-332.43619	100.15649	731.97266	
315	3.140	-182.71614	1390.06555	1034.98499	-243.72426	1539.76440	773.77295	-110.46524	1470.17444	859.58148	-308.63208	1428.47839	961.56812	-68.00600	1299.26672	705.35876	-391.17426	1285.29785	890.34656	-176.43047	1187.42627	926.06177	-273.13287	1294.60400	698.50592	-17.21671	991.48523	606.31866	-492.47601	1017.87439	902.96051	100.32507	826.12573	588.13428	-497.80740	809.77271	1050.87439	-73.74829	908.49835	896.42493	-260.98068	901.94629	968.73267	-282.50919	907.81873	638.96423	19.27325	506.08139	848.75732	-343.91129	452.64584	841.94061	89.53269	145.54062	893.35132	-331.07498	100.67702	732.79089	
